# AST/ASF file generated using VICON BodyLanguage
# -----------------------------------------------
:version 1.10
:name VICON
:units
  mass 1.0
  length 0.45
  angle deg
:documentation
   .ast/.asf automatically generated from VICON data using
   VICON BodyBuilder and BodyLanguage model FoxedUp or BRILLIANT.MOD
:root
   order TX TY TZ RX RY RZ
   axis XYZ
   position 0 0 0  
   orientation 0 0 0 
:bonedata
  begin
     id 1 
     name lhipjoint
     direction 0.643824 -0.71708 0.266994 
     length 2.52133 
     axis 0 0 0  XYZ
  end
  begin
     id 2 
     name lfemur
     direction 0.34202 -0.939693 0  
     length 7.51824  
     axis 0 0 20  XYZ
    dof rx ry rz
    limits (-160.0 20.0)
           (-70.0 70.0)
           (-60.0 70.0)
  end
  begin
     id 3 
     name ltibia
     direction 0.34202 -0.939693 0   
     length 7.3685   
     axis 0 0 20   XYZ
    dof rx
    limits (-10.0 170.0)
  end
  begin
     id 4 
     name lfoot
     direction 0.105419 -0.289636 0.951314   
     length 2.20972   
     axis -90 7.62852e-016 20   XYZ
    dof rx rz
    limits (-45.0 90.0)
           (-70.0 20.0)
  end
  begin
     id 5 
     name ltoes
     direction 1.53549e-011 -4.21833e-011 1   
     length 1.10139   
     axis -90 7.62852e-016 20   XYZ
    dof rx
    limits (-90.0 20.0)
  end
  begin
     id 6 
     name rhipjoint
     direction -0.608823 -0.743445 0.276811   
     length 2.43192  
     axis 0 0 0  XYZ 
  end
  begin
     id 7 
     name rfemur
     direction -0.34202 -0.939693 0   
     length 7.69715   
     axis 0 0 -20   XYZ
    dof rx ry rz
    limits (-160.0 20.0)
           (-70.0 70.0)
           (-70.0 60.0)
  end
  begin
     id 8 
     name rtibia
     direction -0.34202 -0.939693 0   
     length 7.44924   
     axis 0 0 -20   XYZ
    dof rx
    limits (-10.0 170.0)
 end
 begin
     id 9 
     name rfoot
     direction -0.103614 -0.284677 0.953007   
     length 2.22623  
     axis -90 -7.62852e-016 -20   XYZ
    dof rx rz
    limits (-45.0 90.0)
           (-20.0 70.0)
  end
  begin
     id 10 
     name rtoes
     direction -1.53537e-011 -4.22026e-011 1   
     length 1.11   
     axis -90 -7.62852e-016 -20   XYZ
    dof rx
    limits (-90.0 20.0)
  end
  begin
     id 11 
     name lowerback
     direction -0.0101212 0.99662 -0.0815298   
     length 2.08277   
     axis 0 0 0   XYZ
    dof rx ry rz
    limits (-20.0 45.0)
           (-30.0 30.0)
           (-30.0 30.0)
  end
  begin
     id 12 
     name upperback
     direction 0.024314 0.999591 -0.0150645   
     length 2.08524   
     axis 0 0 0   XYZ
    dof rx ry rz
    limits (-20.0 45.0)
           (-30.0 30.0)
           (-30.0 30.0)
  end
  begin
     id 13 
     name thorax
     direction 0.0285959 0.999323 0.0231357   
     length 2.09645   
     axis 0 0 0   XYZ
    dof rx ry rz
    limits (-20.0 45.0)
           (-30.0 30.0)
           (-30.0 30.0)
  end
  begin
     id 14 
     name lowerneck
     direction -0.065512 0.979301 0.191515   
     length 1.63798   
     axis 0 0 0   XYZ
    dof rx ry rz
    limits (-20.0 45.0)
           (-30.0 30.0)
           (-30.0 30.0)
  end
  begin
     id 15 
     name upperneck
     direction 0.0498479 0.98191 -0.182667   
     length 1.68731   
     axis 0 0 0   XYZ
    dof rx ry rz
    limits (-20.0 45.0)
           (-30.0 30.0)
           (-30.0 30.0)
  end
  begin
     id 16
     name head
     direction 0.0230358 0.996257 -0.0833175  
     length 1.69785  
     axis 0 0 0   XYZ
    dof rx ry rz
    limits (-20.0 45.0)
           (-30.0 30.0)
           (-30.0 30.0)
  end
  begin
     id 17 
     name lclavicle
     direction 0.967963 0.201165 -0.150269  
     length 3.63976  
     axis 0 0 0   XYZ
    dof ry rz
    limits (-20.0 10.0)
           (0.0 20.0)
  end
  begin
     id 18 
     name lhumerus
     direction 1 -4.48954e-011 -2.92837e-028   
     length 5.32462   
     axis 180 -30 -90   XYZ
    dof rx ry rz
    limits (-60.0 90.0)
           (-90.0 90.0)
           (-90.0 90.0)
  end
  begin
     id 19
     name lradius
     direction 1 -4.48958e-011 -6.39511e-027   
     length 3.48402   
     axis 180 -30 -90   XYZ
    dof rx
    limits (-10.0 170.0)
  end
  begin
     id 20
     name lwrist
     direction 1 -4.48975e-011 -1.1413e-026   
     length 1.74201   
     axis 6.88575e-015 90 90   XYZ
    dof ry
    limits (-180.0 0.0)
 end
  begin
     id 21 
     name lhand
     direction 1 -4.48899e-011 -2.28192e-026   
     length 0.572476   
     axis 1.45643e-014 90 90   XYZ
    dof rx rz
    limits (-90.0 90.0)
           (-45.0 45.0)
  end
  begin
     id 22 
     name lfingers
     direction 1 -4.49155e-011 -4.5684e-026   
     length 0.461545   
     axis 2.91283e-014 90 90   XYZ
    dof rx
    limits (0.0 90.0)
  end
  begin
     id 23
     name lthumb
     direction 0.707107 -6.34943e-011 0.707107   
     length 0.662688   
     axis -90 45 -2.25915e-014   XYZ
    dof rx rz
    limits (-45.0 45.0)
           (-45.0 45.0)
  end
  begin
     id 24 
     name rclavicle
     direction -0.964103 0.264019 -0.0282629   
     length 3.54491  
     axis 0 0 0   XYZ 
    dof ry rz
    limits (-10.0 20.0)
           (-20.0 0.0)
  end
  begin
     id 25 
     name rhumerus
     direction -1 -4.48964e-011 -2.45032e-027  
     length 5.33589   
     axis 180 30 90   XYZ
    dof rx ry rz
    limits (-90.0 60.0)
           (-90.0 90.0)
           (-90.0 90.0)
  end
  begin
     id 26 
     name rradius
     direction -1 -4.48987e-011 -1.55093e-027   
     length 3.64134   
     axis 180 30 90   XYZ
    dof rx
    limits (-10.0 170.0)
  end
  begin
     id 27 
     name rwrist
     direction -1 -4.4897e-011 -1.14128e-026   
     length 1.82067   
     axis 6.88575e-015 -90 -90   XYZ
    dof ry
    limits (-180.0 0.0)
  end
  begin
     id 28
     name rhand
     direction -1 -4.49021e-011 -2.28301e-026   
     length 0.734811   
     axis 1.45643e-014 -90 -90   XYZ
    dof rx rz
    limits (-90.0 90.0)
           (-45.0 45.0)
  end
  begin
     id 29
     name rfingers
     direction -1 -4.48862e-011 -4.56319e-026   
     length 0.592424   
     axis 2.91283e-014 -90 -90   XYZ
    dof rx
    limits (0.0 90.0)
  end
  begin
     id 30
     name rthumb
     direction -0.707107 -6.34978e-011 0.707107   
     length 0.850605   
     axis -90 -45 2.25915e-014   XYZ
    dof rx rz
    limits (-45.0 45.0)
           (-45.0 45.0)
  end
:hierarchy
  begin
    root lhipjoint rhipjoint lowerback
    lhipjoint lfemur
    lfemur ltibia
    ltibia lfoot
    lfoot ltoes
    rhipjoint rfemur
    rfemur rtibia
    rtibia rfoot
    rfoot rtoes
    lowerback upperback
    upperback thorax
    thorax lowerneck lclavicle rclavicle
    lowerneck upperneck
    upperneck head
    lclavicle lhumerus
    lhumerus lradius
    lradius lwrist
    lwrist lhand lthumb
    lhand lfingers
    rclavicle rhumerus
    rhumerus rradius
    rradius rwrist
    rwrist rhand rthumb
    rhand rfingers
  end

#!OML:ASF F:\VICON\USERDATA\INSTALL\rory3\rory3.ASF
:FULLY-SPECIFIED
:DEGREES
27
root -0.0273479 18.0211 -0.804553 4.58285 -14.192 0.704989
lowerback 0.720399 -1.11451 -2.93773
upperback -0.022474 -1.50551 1.71641
thorax -0.304968 -0.748127 3.42424
lowerneck -15.7311 -8.83849 -13.836
upperneck 20.3147 -10.4381 7.00386
head 10.2018 -5.16816 3.24489
rclavicle -1.29707e-014 -5.96354e-015
rhumerus -38.0227 -9.565 -76.1207
rradius 40.5547
rwrist 17.2288
rhand -20.535 5.96503
rfingers 7.12502
rthumb 5.82333 -23.9349
lclavicle -1.29707e-014 -5.96354e-015
lhumerus -42.1742 24.9426 71.3356
lradius 27.5763
lwrist 2.55923
lhand -21.5325 21.1889
lfingers 7.12502
lthumb 4.86016 51.1131
rfemur -10.9058 9.11835 14.6346
rtibia 24.1229
rfoot -14.1172 -0.276003
rtoes 5.9084
lfemur -0.695955 -1.51562 -21.6306
ltibia 11.0791
lfoot -10.3903 9.36817
ltoes -11.6102
28
root -0.0283588 18.0187 -0.806994 4.56438 -14.1476 0.772323
lowerback 0.68115 -1.10252 -3.02269
upperback -0.0557772 -1.4894 1.67026
thorax -0.317518 -0.739161 3.42399
lowerneck -15.6675 -8.76925 -13.805
upperneck 20.3817 -10.3581 6.98537
head 10.2018 -5.13369 3.24894
rclavicle 1.6201e-014 9.54166e-015
rhumerus -38.0451 -9.66338 -76.1256
rradius 40.4844
rwrist 17.2994
rhand -20.7392 6.01348
rfingers 7.12502
rthumb 5.62612 -23.8918
lclavicle 1.6201e-014 9.54166e-015
lhumerus -42.1884 24.644 71.4907
lradius 27.8224
lwrist 2.72362
lhand -21.6759 20.9856
lfingers 7.12502
lthumb 4.72176 50.913
rfemur -10.9021 9.12698 14.5682
rtibia 24.158
rfoot -14.1576 -0.276537
rtoes 6.17597
lfemur -0.717577 -1.49246 -21.6928
ltibia 11.0561
lfoot -10.3694 9.31583
ltoes -11.524
29
root -0.0287784 18.019 -0.811142 4.56535 -14.0886 0.779759
lowerback 0.699967 -1.08148 -3.05722
upperback -0.11008 -1.46228 1.67296
thorax -0.385093 -0.723399 3.44726
lowerneck -15.6015 -8.70898 -13.8328
upperneck 20.4426 -10.2681 6.93835
head 10.2002 -5.10201 3.25352
rclavicle -2.5345e-015 3.57812e-015
rhumerus -38.036 -9.73522 -76.0972
rradius 40.4222
rwrist 17.3044
rhand -20.9341 5.99818
rfingers 7.12502
rthumb 5.43795 -23.912
lclavicle -2.5345e-015 3.57812e-015
lhumerus -42.2615 24.5515 71.5937
lradius 28.0773
lwrist 2.566
lhand -21.8837 21.1996
lfingers 7.12502
lthumb 4.52112 51.1313
rfemur -10.9186 9.12162 14.5702
rtibia 24.189
rfoot -14.1937 -0.322063
rtoes 6.3108
lfemur -0.763424 -1.513 -21.6831
ltibia 11.0442
lfoot -10.3444 9.27975
ltoes -11.4086
30
root -0.0284307 18.0216 -0.813825 4.56132 -14.0734 0.767652
lowerback 0.713592 -1.0588 -3.08638
upperback -0.139645 -1.43265 1.6977
thorax -0.424184 -0.70729 3.48977
lowerneck -15.6891 -8.59258 -13.7662
upperneck 20.5682 -10.0801 6.79531
head 10.2281 -5.0253 3.22006
rclavicle 2.71093e-014 8.74653e-015
rhumerus -37.9505 -9.7863 -76.0641
rradius 40.3494
rwrist 17.3444
rhand -21.0416 5.76572
rfingers 7.12502
rthumb 5.33421 -24.1471
lclavicle 2.71093e-014 8.74653e-015
lhumerus -42.2633 24.9207 71.4969
lradius 28.1331
lwrist 1.94658
lhand -21.9031 21.5333
lfingers 7.12502
lthumb 4.50234 51.4654
rfemur -10.9416 9.13735 14.592
rtibia 24.222
rfoot -14.2415 -0.397523
rtoes 6.11606
lfemur -0.73046 -1.50493 -21.6619
ltibia 11.0051
lfoot -10.3382 9.21477
ltoes -11.4997
31
root -0.0291148 18.0231 -0.816869 4.5602 -14.0301 0.754482
lowerback 0.683961 -1.0569 -3.10536
upperback -0.152851 -1.42951 1.71017
thorax -0.420611 -0.705534 3.51287
lowerneck -15.7222 -8.4435 -13.6434
upperneck 20.6177 -9.87024 6.67527
head 10.2141 -4.93242 3.19126
rclavicle -8.03339e-014 2.06736e-014
rhumerus -37.8807 -9.78685 -76.0782
rradius 40.3058
rwrist 17.436
rhand -21.2227 5.62256
rfingers 7.12502
rthumb 5.15929 -24.2946
lclavicle -8.03339e-014 2.06736e-014
lhumerus -42.1426 25.0598 71.5383
lradius 28.1566
lwrist 1.69682
lhand -22.0809 21.2846
lfingers 7.12502
lthumb 4.3307 51.2203
rfemur -10.9436 9.16217 14.6168
rtibia 24.2289
rfoot -14.2819 -0.481759
rtoes 6.08817
lfemur -0.698539 -1.49552 -21.6332
ltibia 10.9657
lfoot -10.3185 9.12272
ltoes -11.6384
32
root -0.0291197 18.0225 -0.819063 4.53981 -13.9757 0.809713
lowerback 0.655775 -1.03811 -3.15915
upperback -0.161607 -1.40428 1.67428
thorax -0.41553 -0.692725 3.5055
lowerneck -15.8443 -8.33559 -13.4218
upperneck 20.7539 -9.71613 6.47398
head 10.2447 -4.8651 3.10602
rclavicle 6.28657e-014 -1.23246e-014
rhumerus -37.8515 -9.8039 -76.1107
rradius 40.2954
rwrist 17.5709
rhand -21.4388 5.71545
rfingers 7.12502
rthumb 4.95065 -24.2067
lclavicle 6.28657e-014 -1.23246e-014
lhumerus -42.03 24.7992 71.7675
lradius 28.3958
lwrist 1.71518
lhand -22.3053 20.82
lfingers 7.12502
lthumb 4.11399 50.7601
rfemur -10.9219 9.17073 14.5612
rtibia 24.222
rfoot -14.3053 -0.534339
rtoes 6.01052
lfemur -0.689214 -1.54636 -21.6862
ltibia 10.9377
lfoot -10.3036 9.09995
ltoes -11.5149
33
root -0.0288716 18.0226 -0.821374 4.5167 -13.9062 0.784189
lowerback 0.661959 -1.00872 -3.13479
upperback -0.155995 -1.36502 1.66618
thorax -0.4173 -0.673184 3.48321
lowerneck -16.0067 -8.21521 -13.2012
upperneck 20.908 -9.54296 6.28662
head 10.2886 -4.78694 3.02769
rclavicle 7.65321e-015 -3.97569e-016
rhumerus -37.8329 -9.78378 -76.1349
rradius 40.3817
rwrist 17.8103
rhand -21.4905 5.73037
rfingers 7.12502
rthumb 4.90073 -24.193
lclavicle 7.65321e-015 -3.97569e-016
lhumerus -41.8412 24.5046 72.0711
lradius 28.6423
lwrist 1.55327
lhand -22.4246 21.1192
lfingers 7.12502
lthumb 3.99872 51.0614
rfemur -10.8735 9.18721 14.6
rtibia 24.2153
rfoot -14.3292 -0.60363
rtoes 6.17541
lfemur -0.660644 -1.63578 -21.6523
ltibia 10.9104
lfoot -10.2705 9.11902
ltoes -11.4013
34
root -0.0293252 18.0215 -0.822859 4.4659 -13.8151 0.735646
lowerback 0.671901 -0.998058 -3.09252
upperback -0.147099 -1.35063 1.67743
thorax -0.415641 -0.666255 3.47098
lowerneck -15.9772 -8.02449 -13.1098
upperneck 20.951 -9.30375 6.28095
head 10.2669 -4.6722 3.0511
rclavicle 2.24875e-014 -1.98785e-014
rhumerus -37.8391 -9.6937 -76.1735
rradius 40.5312
rwrist 18.1653
rhand -21.5328 5.62157
rfingers 7.12502
rthumb 4.85993 -24.3027
lclavicle 2.24875e-014 -1.98785e-014
lhumerus -41.6504 24.1521 72.4364
lradius 28.9006
lwrist 1.45224
lhand -22.5105 21.9192
lfingers 7.12502
lthumb 3.91582 51.863
rfemur -10.7755 9.20832 14.6749
rtibia 24.2109
rfoot -14.3601 -0.646033
rtoes 6.70044
lfemur -0.622582 -1.64814 -21.5842
ltibia 10.8819
lfoot -10.266 9.04942
ltoes -11.2485
35
root -0.0288926 18.0186 -0.822846 4.4166 -13.6863 0.7226
lowerback 0.631655 -1.03341 -3.07467
upperback -0.126294 -1.39646 1.70447
thorax -0.367659 -0.690492 3.488
lowerneck -16.099 -7.80777 -13.0665
upperneck 21.1008 -9.00087 6.28255
head 10.3084 -4.52898 3.09047
rclavicle -5.38458e-014 -1.98785e-015
rhumerus -37.7267 -9.52957 -76.2425
rradius 40.564
rwrist 18.5472
rhand -21.7829 5.76502
rfingers 7.12502
rthumb 4.61843 -24.1646
lclavicle -5.38458e-014 -1.98785e-015
lhumerus -41.4719 23.8548 72.7995
lradius 29.0957
lwrist 1.55741
lhand -22.5007 21.9494
lfingers 7.12502
lthumb 3.92527 51.893
rfemur -10.6745 9.1428 14.712
rtibia 24.2026
rfoot -14.3984 -0.65898
rtoes 6.72995
lfemur -0.598679 -1.66971 -21.5529
ltibia 10.8549
lfoot -10.2536 8.94881
ltoes -11.1319
36
root -0.0284278 18.0179 -0.826091 4.33433 -13.5435 0.747417
lowerback 0.715327 -1.06884 -3.13343
upperback -0.140213 -1.44637 1.74362
thorax -0.422266 -0.714065 3.56387
lowerneck -16.4438 -7.5847 -12.9817
upperneck 21.5317 -8.65123 6.15833
head 10.481 -4.37391 3.08057
rclavicle -2.48481e-017 -5.96354e-015
rhumerus -37.6562 -9.27265 -76.3161
rradius 40.6195
rwrist 18.942
rhand -22.0915 5.94535
rfingers 7.12502
rthumb 4.32044 -23.9906
lclavicle -2.48481e-017 -5.96354e-015
lhumerus -41.3259 23.5896 73.1467
lradius 29.2458
lwrist 1.64579
lhand -22.5544 21.4832
lfingers 7.12502
lthumb 3.87344 51.4277
rfemur -10.5661 9.03334 14.7246
rtibia 24.198
rfoot -14.4174 -0.740472
rtoes 6.1943
lfemur -0.519014 -1.73702 -21.5609
ltibia 10.8444
lfoot -10.2162 8.84897
ltoes -11.0788
